<?xml version="1.0" standalone="no"?>
<!DOCTYPE svg PUBLIC "-//W3C//DTD SVG 20010904//EN"
 "http://www.w3.org/TR/2001/REC-SVG-20010904/DTD/svg10.dtd">
<svg version="1.0" xmlns="http://www.w3.org/2000/svg"
 width="700.000000pt" height="700.000000pt" viewBox="0 0 700.000000 700.000000"
 preserveAspectRatio="xMidYMid meet">
<metadata>
Created by potrace 1.14, written by Peter Selinger 2001-2017
</metadata>
<g transform="translate(0.000000,700.000000) scale(0.100000,-0.100000)"
fill="#000000" stroke="none">
<path d="M5055 6990 c-43 -7 -94 -14 -170 -25 -11 -1 -67 -15 -125 -30 -268
-69 -521 -190 -745 -359 -108 -82 -135 -105 -243 -215 -134 -135 -197 -219
-339 -446 -26 -42 -102 -205 -134 -288 -19 -48 -36 -87 -39 -87 -3 0 -5 60 -5
134 0 149 -6 165 -71 186 -53 18 -90 -7 -171 -113 -248 -325 -432 -667 -598
-1112 -62 -164 -135 -399 -149 -475 -2 -14 -9 -46 -15 -73 -6 -26 -14 -64 -17
-83 -3 -20 -8 -46 -10 -58 -27 -133 -23 -375 10 -521 16 -75 87 -227 120 -260
7 -7 23 -26 37 -41 59 -71 177 -150 282 -189 26 -10 47 -20 47 -24 -1 -7 -25
-109 -41 -173 l-12 -48 -459 0 c-252 0 -610 0 -796 0 -266 -1 -348 -4 -386
-15 -200 -60 -292 -284 -190 -462 42 -74 107 -122 208 -157 16 -6 12 -13 -32
-60 -103 -109 -173 -247 -208 -411 -3 -16 -7 -178 -9 -360 -3 -374 -2 -381 64
-415 37 -18 41 -24 41 -58 0 -20 7 -63 14 -96 14 -58 14 -59 -10 -80 -40 -34
-46 -76 -20 -133 28 -59 108 -166 167 -222 39 -37 170 -131 183 -131 3 0 29
-11 58 -24 61 -28 114 -44 178 -54 25 -4 493 -7 1040 -7 l995 0 80 23 c306 88
530 331 593 642 3 14 7 204 9 424 5 488 -1 542 -84 711 -36 74 -87 146 -148
211 l-37 39 29 6 c48 10 114 49 155 92 57 60 80 118 84 208 3 66 0 83 -25 136
-36 75 -88 128 -160 162 l-56 26 -530 3 c-291 2 -530 4 -532 5 -1 1 8 36 20
77 l22 75 115 1 c116 2 204 18 345 65 111 37 383 179 460 242 6 4 35 26 65 48
85 62 204 171 305 280 164 176 404 538 430 650 12 49 -33 107 -90 116 -34 6
-307 -80 -509 -161 -76 -31 -141 -56 -144 -56 -12 0 65 73 138 133 153 124
327 224 560 322 336 142 503 239 700 403 80 67 358 340 372 365 18 34 19 67 2
102 l-16 34 64 74 c50 59 67 74 83 69 40 -12 94 -6 115 13 53 48 176 259 220
378 54 143 70 331 41 462 -43 190 -180 381 -339 473 -91 53 -226 102 -322 118
-25 4 -54 9 -65 11 -42 7 -352 9 -400 3z"/>
</g>
</svg>
